PathFileType	4	(X/Y/Z)	/Users/itak/Documents/Research/Walk-IL/dataset/trc/00082_00006.trc
DataRate	CameraRate	NumFrames	NumMarkers	Units	OrigDataRate	OrigDataStartFrame	OrigNumFrames
100.000000	100.000000	4	53	mm	100.000000	250	500
Frame#	Time	RPSI			LPSI			L3			STRN			T10			C7			CLAV			RBAK			LBAK			LSHO			LUPA			LAEL			LAOL			LWTS			LWPS			LFRA			LIFD			LHPS			LHTS			RSHO			RUPA			RAEL			RAOL			RWTS			RWPS			RFRA			RIFD			RHTS			RHPS			RBHD			LFHD			RFHD			LBHD			LHIP			RHIP			RASI			LASI			LKNE			LTHI			LANK			LTIP			LTOE			LMT1			LMT5			LHEE			RKNE			RTHI			RANK			RTIP			RTOE			RMT1			RMT5			RHEE			
		X1	Y1	Z1	X2	Y2	Z2	X3	Y3	Z3	X4	Y4	Z4	X5	Y5	Z5	X6	Y6	Z6	X7	Y7	Z7	X8	Y8	Z8	X9	Y9	Z9	X10	Y10	Z10	X11	Y11	Z11	X12	Y12	Z12	X13	Y13	Z13	X14	Y14	Z14	X15	Y15	Z15	X16	Y16	Z16	X17	Y17	Z17	X18	Y18	Z18	X19	Y19	Z19	X20	Y20	Z20	X21	Y21	Z21	X22	Y22	Z22	X23	Y23	Z23	X24	Y24	Z24	X25	Y25	Z25	X26	Y26	Z26	X27	Y27	Z27	X28	Y28	Z28	X29	Y29	Z29	X30	Y30	Z30	X31	Y31	Z31	X32	Y32	Z32	X33	Y33	Z33	X34	Y34	Z34	X35	Y35	Z35	X36	Y36	Z36	X37	Y37	Z37	X38	Y38	Z38	X39	Y39	Z39	X40	Y40	Z40	X41	Y41	Z41	X42	Y42	Z42	X43	Y43	Z43	X44	Y44	Z44	X45	Y45	Z45	X46	Y46	Z46	X47	Y47	Z47	X48	Y48	Z48	X49	Y49	Z49	X50	Y50	Z50	X51	Y51	Z51	X52	Y52	Z52	X53	Y53	Z53	

251	2.5	-465.5723571777344	1000.650451660156	422.858154296875	-528.6067504882812	992.0419921875	263.094482421875	-499.9085083007812	1058.294555664062	330.1021423339844	-252.8240966796875	1252.256591796875	270.8280334472656	-518.0177001953125	1188.056518554688	320.7056274414062	-456.3005676269531	1455.702270507812	315.1358337402344	-280.8361511230469	1366.77197265625	281.3063049316406	-504.4425354003906	1314.005615234375	393.4754333496094	-498.8787841796875	1422.361572265625	218.4887390136719	-410.2285766601562	1429.09765625	130.4253387451172	-435.6556396484375	1306.302368164062	50.05828475952148	-399.2267456054688	1097.294067382812	6.881283283233643	-445.51416015625	1068.516235351562	98.26071929931641	-244.0468139648438	890.8532104492188	54.82744216918945	-304.3946838378906	861.2942504882812	4.339731693267822	-354.8840026855469	995.0708618164062	-5.85059928894043	-179.7277221679688	718.4231567382812	75.663818359375	-250.3597564697266	793.7110595703125	4.792528629302979	-199.8340606689453	818.3394165039062	47.86672592163086	-364.0232543945312	1412.364013671875	474.2728271484375	-369.8402709960938	1344.260131835938	535.4950561523438	-423.1578979492188	1092.244018554688	585.0169677734375	-412.1625671386719	1060.327758789062	490.2813110351562	-304.0484924316406	827.2129516601562	554.3661499023438	-369.7617797851562	821.5057373046875	612.9315185546875	-415.6183776855469	1011.276794433594	599.3778686523438	-328.8031311035156	641.9290771484375	543.0403442382812	-290.6281127929688	724.5185546875	558.2263793945312	-338.8983459472656	730.431640625	618.0103759765625	-429.6611022949219	1639.156982421875	302.0830078125	-216.8076019287109	1661.096313476562	292.3007507324219	-292.6979064941406	1668.638061523438	192.3755798339844	-340.2363586425781	1622.786499023438	404.8396606445312	-465.4643249511719	927.4654541015625	140.5513763427734	-369.7207641601562	936.4979248046875	473.3124694824219	-263.3294067382812	958.4632568359375	409.1136474609375	-343.4800109863281	937.1307983398438	153.0433044433594	-433.671630859375	460.3838806152344	240.2446899414062	-452.4652404785156	602.93603515625	188.3415222167969	-712.894287109375	80.61611938476562	305.2590026855469	-582.521240234375	253.7461395263672	264.4516296386719	-517.6796875	42.87507247924805	313.8733825683594	-563.843017578125	43.5923957824707	365.3634948730469	-617.5227661132812	44.90343475341797	266.7725219726562	-761.3477172851562	104.8630599975586	380.7982177734375	-168.1101379394531	527.8211059570312	381.9981079101562	-240.9038238525391	782.9595947265625	436.9529113769531	-134.695556640625	38.62478637695312	407.7522888183594	-146.6737670898438	402.3774108886719	388.9883117675781	19.4958438873291	73.46791839599609	265.9454345703125	-48.34881973266602	60.29220199584961	261.6650085449219	-25.85280990600586	57.79965209960938	357.8495483398438	-202.4911956787109	34.54801177978516	380.48388671875	
252	2.51	-455.5404357910156	1001.851135253906	421.1520385742188	-518.8101806640625	992.6589965820312	261.3570861816406	-489.7167053222656	1058.841552734375	328.4405212402344	-242.7277526855469	1253.07177734375	269.5432739257812	-508.0025634765625	1188.901733398438	319.6361694335938	-446.1507263183594	1456.454467773438	314.4671020507812	-270.7123107910156	1367.577514648438	280.1837768554688	-494.0490417480469	1314.724731445312	392.7763366699219	-488.9712219238281	1423.302490234375	217.8798828125	-400.4462890625	1430.055053710938	129.6523895263672	-426.4422302246094	1307.368530273438	49.31692886352539	-391.5321044921875	1098.24853515625	6.070048332214355	-437.3255004882812	1069.745727539062	97.78776550292969	-238.4443054199219	889.7821655273438	51.90503692626953	-299.6891479492188	861.1995239257812	1.897411704063416	-348.4741821289062	995.5930786132812	-7.377108573913574	-175.8453216552734	716.5975341796875	71.25688171386719	-246.402099609375	793.0082397460938	1.463636875152588	-195.2154693603516	816.7896728515625	44.16325378417969	-353.4528198242188	1413.03857421875	473.3646545410156	-359.0314025878906	1344.851440429688	534.55419921875	-411.8122863769531	1092.592407226562	583.676025390625	-400.9822082519531	1060.835327148438	488.8550109863281	-292.7005920410156	827.6511840820312	552.6593017578125	-358.3283386230469	821.9133911132812	611.262939453125	-404.2189636230469	1011.664916992188	597.873046875	-317.2621154785156	642.3912353515625	541.3333129882812	-279.2719116210938	724.9326171875	556.4422607421875	-327.5065612792969	730.8411254882812	616.2786254882812	-420.0146789550781	1639.74609375	301.5016479492188	-207.16650390625	1662.097045898438	290.5740356445312	-283.6840209960938	1669.443359375	191.0217895507812	-330.0381469726562	1623.72705078125	403.724853515625	-455.8613586425781	927.775634765625	138.8894195556641	-359.6890563964844	937.9246826171875	471.5193481445312	-253.1710815429688	959.8080444335938	407.4899291992188	-333.6947326660156	937.7635498046875	151.6644744873047	-421.0965881347656	459.4436950683594	237.2168273925781	-440.7101440429688	602.6558837890625	186.3691864013672	-710.34375	85.88216400146484	305.3381042480469	-575.5787963867188	256.2891235351562	262.7431640625	-518.66064453125	42.98280715942383	313.917724609375	-563.1053466796875	44.07285690307617	365.2405395507812	-616.9002075195312	45.3934326171875	266.830078125	-756.8104858398438	113.1543273925781	380.9898986816406	-159.6339416503906	528.4310913085938	379.1510620117188	-230.9793548583984	784.0389404296875	434.0997924804688	-133.5362396240234	38.52073669433594	407.52880859375	-139.3943176269531	402.3868713378906	386.5307922363281	21.46005439758301	68.98783111572266	264.7882080078125	-47.01979064941406	57.6201057434082	260.9979553222656	-24.50319862365723	55.21405410766602	357.0663146972656	-201.6165466308594	35.56472396850586	380.64990234375	
253	2.52	-445.5244750976562	1003.134887695312	419.436279296875	-509.0959777832031	993.4608764648438	259.6597900390625	-479.5809936523438	1059.620727539062	326.8379211425781	-232.6365509033203	1254.05078125	268.1762084960938	-498.0043640136719	1189.936279296875	318.5995483398438	-435.968505859375	1457.371948242188	313.7695007324219	-260.6009216308594	1368.552001953125	278.9649658203125	-483.5954284667969	1315.622314453125	392.0768737792969	-479.08544921875	1424.42822265625	217.2638549804688	-390.7197265625	1431.194580078125	128.8454132080078	-417.3133239746094	1308.639526367188	48.544921875	-384.0347900390625	1099.379638671875	5.30361795425415	-429.296142578125	1071.20458984375	97.37162017822266	-233.1894683837891	888.8035888671875	48.98131942749023	-295.3978881835938	861.2619018554688	-0.4929672181606293	-342.3475646972656	996.2825927734375	-8.858338356018066	-172.5151519775391	714.811767578125	66.87985229492188	-242.9465179443359	792.4102172851562	-1.815304517745972	-191.0431823730469	815.2783203125	40.47951507568359	-342.7922973632812	1413.9140625	472.385009765625	-348.1133422851562	1345.673583984375	533.5614013671875	-400.3560791015625	1093.178344726562	582.3385620117188	-389.7529602050781	1061.583251953125	487.4207763671875	-281.2113342285156	828.3302001953125	550.8535766601562	-346.7206115722656	822.5507202148438	609.5350952148438	-392.6993408203125	1012.278564453125	596.3574829101562	-305.6688537597656	643.085693359375	539.4761352539062	-267.7782897949219	725.5758666992188	554.5158081054688	-315.950439453125	731.4828491210938	614.4522094726562	-410.3412780761719	1640.492797851562	300.85400390625	-197.5020904541016	1663.22021484375	288.7626953125	-274.6499938964844	1670.37548828125	189.5902709960938	-319.8256225585938	1624.8271484375	402.5218505859375	-446.3929443359375	928.3203735351562	137.2252655029297	-349.6739807128906	939.3777465820312	469.7032165527344	-243.0194549560547	961.2091064453125	405.8198852539062	-323.986328125	938.6265869140625	150.3021850585938	-407.5246887207031	458.5420227050781	233.3296356201172	-428.2977294921875	602.4590454101562	183.9015502929688	-707.2091674804688	91.77231597900391	305.5357666015625	-567.9285278320312	259.3267517089844	260.6697387695312	-519.9185791015625	43.08679962158203	313.9012145996094	-562.1864013671875	44.65557479858398	365.0612487792969	-616.2495727539062	46.00496673583984	266.9802856445312	-751.0593872070312	122.3613891601562	381.3254699707031	-151.4613037109375	528.8805541992188	376.6041870117188	-221.1915283203125	785.0902099609375	431.3880004882812	-132.5453643798828	38.40011596679688	407.3793029785156	-132.5296630859375	402.3208923339844	384.3804016113281	23.56864166259766	65.00584411621094	264.1129760742188	-45.54977798461914	55.45513534545898	260.6876220703125	-23.19660377502441	53.012939453125	356.6531982421875	-200.8049468994141	36.43939590454102	380.7940979003906	
254	2.53	-435.505126953125	1004.485717773438	417.7674255371094	-499.5103149414062	994.4033203125	258.0829772949219	-469.5249633789062	1060.607055664062	325.3591003417969	-222.5845336914062	1255.146728515625	266.6890869140625	-488.0234069824219	1191.119873046875	317.6263732910156	-425.768798828125	1458.423706054688	313.0476684570312	-250.5306396484375	1369.649658203125	277.6226196289062	-473.0961303710938	1316.663818359375	391.3927612304688	-469.2537841796875	1425.700439453125	216.6535186767578	-381.1000366210938	1432.469116210938	128.0007629394531	-408.3172302246094	1310.0703125	47.74037551879883	-376.7483520507812	1100.643920898438	4.558333396911621	-421.4466552734375	1072.83642578125	96.98695373535156	-228.2641143798828	887.9122924804688	46.06727981567383	-291.4707336425781	861.4612426757812	-2.82550835609436	-336.4945678710938	997.1069946289062	-10.30343914031982	-169.7235412597656	713.0654907226562	62.57929992675781	-239.9527740478516	791.9109497070312	-5.019669055938721	-187.2807464599609	813.813720703125	36.85022354125977	-332.0332946777344	1414.950805664062	471.3207092285156	-337.0822143554688	1346.689208984375	532.5054931640625	-388.803955078125	1093.9697265625	581.015625	-378.4989013671875	1062.533813476562	485.9899597167969	-269.5946044921875	829.225341796875	548.9395141601562	-334.9405212402344	823.3856201171875	607.7481689453125	-381.0733032226562	1013.085510253906	594.8458862304688	-294.0123596191406	643.9879150390625	537.4596557617188	-256.1358337402344	726.4353637695312	552.4449462890625	-304.2195129394531	732.3245849609375	612.5233154296875	-400.6479187011719	1641.366821289062	300.1329040527344	-187.8395690917969	1664.43310546875	286.8587646484375	-265.609619140625	1671.407836914062	188.0794372558594	-309.6118469238281	1626.03955078125	401.2270812988281	-437.1567077636719	929.0596923828125	135.6133575439453	-339.6454772949219	940.8232421875	467.889892578125	-232.8989562988281	962.6036376953125	404.0733947753906	-314.4384765625	939.6804809570312	148.9341583251953	-393.0132446289062	457.7127380371094	228.5293731689453	-415.3125305175781	602.3457641601562	180.8793334960938	-703.3602905273438	98.29141998291016	305.8598022460938	-559.5187377929688	262.8895568847656	258.2013244628906	-521.3412475585938	43.14427947998047	313.7627258300781	-560.9498901367188	45.38901519775391	364.7789001464844	-615.5450439453125	46.82502365112305	267.2096252441406	-743.9199829101562	132.4116668701172	381.7928466796875	-143.6775207519531	529.1466064453125	374.39990234375	-211.5827789306641	786.0629272460938	428.8712158203125	-131.7534942626953	38.24898529052734	407.2957153320312	-126.1433715820312	402.1591186523438	382.5825500488281	25.78607749938965	61.48238372802734	263.8870849609375	-43.96105575561523	53.74599075317383	260.7003173828125	-21.93865394592285	51.16146469116211	356.5812377929688	-200.0899200439453	37.15843963623047	380.9031066894531	
